<svg width="97" height="10" viewBox="0 0 97 10" fill="none" xmlns="http://www.w3.org/2000/svg">
<path d="M8.22385 6.67042H2.62487V10H0V4.0895C0 1.83507 1.77902 0 3.96731 0H11.2143V2.25725H4.29474C3.37522 2.25725 2.62487 3.02843 2.62487 3.97974V4.56234H8.22385V6.67042ZM39.4685 0.0197017H36.8436V6.085C36.8436 7.17985 35.5721 7.86096 33.523 7.86096C31.4766 7.86096 30.2051 7.17985 30.2051 6.085V0.0197017H27.5802V6.3946C27.5802 8.54208 29.9677 9.98311 33.523 9.98311C37.081 9.98311 39.4685 8.54208 39.4685 6.3946V0.0197017ZM46.7319 0.0197017H44.107V9.7101H46.7319V0.0197017ZM61.1468 4.92823C61.1468 3.30425 59.8617 2.12778 58.0936 2.12778H53.9953V7.60203H58.1072C59.065 7.60203 60.0145 7.16015 60.5875 6.45089C60.9477 6.00056 61.1468 5.46017 61.1468 4.92823ZM57.949 0.0197017C61.5588 0.0197017 63.8945 1.96172 63.8945 4.96763C63.8945 6.3946 63.2997 7.5767 62.1264 8.48579C61.1114 9.27385 59.7416 9.70729 58.2655 9.70729H51.3677V0.0197017H57.949ZM70.8741 4.54827H75.9929C76.8851 4.54827 77.4008 4.14861 77.4035 3.45342C77.4035 3.4309 77.4035 3.18323 77.4035 3.18041C77.4035 2.53026 76.8578 2.12778 75.9765 2.12778H70.8714V4.54827H70.8741ZM80.0039 3.52378C80.0011 4.44695 79.7092 5.18435 79.1334 5.7163C79.6355 6.27076 79.9002 6.98002 79.9002 7.77653V9.70729H77.2999V7.71179C77.2999 7.06727 76.7569 6.66479 75.8865 6.65916C75.6791 6.66479 75.4963 6.66198 75.3517 6.65916L70.8741 6.65353V9.70729H68.2465V0.0197017H76.2439C78.495 0.0197017 80.0066 1.31438 80.0066 3.24514V3.52378H80.0039ZM17.37 5.58401V0.0197017H14.7587V5.48832C14.7587 7.78216 16.5678 9.64537 18.7888 9.64537H24.6934V7.22769H18.917C18.0794 7.23051 17.37 6.47622 17.37 5.58401ZM88.4405 5.52209C88.989 5.39826 89.532 5.35322 90.0422 5.35322C90.8307 5.35322 91.5402 5.46017 92.075 5.55587L90.2468 2.21503L88.4405 5.52209ZM96.5552 6.62257C96.2142 6.83366 95.9086 7.00535 95.6275 7.14607L97 9.68196H94.3178L93.2455 7.70616C93.1309 7.70335 93.0136 7.69772 92.8908 7.68928C92.6671 7.6752 92.416 7.62736 92.0968 7.56825C90.1568 7.20236 87.9985 6.98846 86.5797 8.99522L86.2058 9.68477H83.5237L88.7543 0.0506614H91.783L94.6917 5.42077C94.9481 5.29975 95.2319 5.14213 95.5702 4.93104L95.6985 4.85224L96.6835 6.54377L96.5552 6.62257Z" fill="white"/>
</svg>
